<svg preserveAspectRatio="none" width="100%" height="100%" overflow="visible" style="display: block;" viewBox="0 0 17 11" fill="none" xmlns="http://www.w3.org/2000/svg">
<path id="Cellular Connection" fill-rule="evenodd" clip-rule="evenodd" d="M15.5 0H14.5C13.9477 0 13.5 0.44072 13.5 0.984375V9.51562C13.5 10.0593 13.9477 10.5 14.5 10.5H15.5C16.0523 10.5 16.5 10.0593 16.5 9.51562V0.984375C16.5 0.44072 16.0523 0 15.5 0ZM10 2H11C11.5523 2 12 2.45667 12 3.02V9.48C12 10.0433 11.5523 10.5 11 10.5H10C9.44771 10.5 9 10.0433 9 9.48V3.02C9 2.45667 9.44771 2 10 2ZM6.5 4.50266H5.5C4.94772 4.50266 4.5 4.95038 4.5 5.50266V9.50266C4.5 10.0549 4.94772 10.5027 5.5 10.5027H6.5C7.05228 10.5027 7.5 10.0549 7.5 9.50266V5.50266C7.5 4.95038 7.05228 4.50266 6.5 4.50266ZM2 6.50266H1C0.447715 6.50266 0 6.95038 0 7.50266V9.50266C0 10.0549 0.447715 10.5027 1 10.5027H2C2.55228 10.5027 3 10.0549 3 9.50266V7.50266C3 6.95038 2.55228 6.50266 2 6.50266Z" fill="var(--fill-0, #191D30)"/>
</svg>
